<svg version="1" xmlns="http://www.w3.org/2000/svg" width="682.667" height="682.667" viewBox="0 0 512.000000 512.000000"><path d="M77.5 102.9c-3.9 1.7-4.9 3.8-3.5 7.1 1.6 3.8 9.6 11.3 87.5 81.2 64.3 57.7 66.1 59.5 72.9 73.3 1.3 2.7 3.4 8.1 4.7 12 2.3 6.9 2.4 7.8 2.9 64.5.6 63.5.3 60.7 7 66.4 5.8 4.9 13.1 2.7 17.7-5.2l2.8-4.7.5-57.5c.6-56.9.6-57.6 2.9-64.5 3.1-9.2 6.9-16.6 12.4-24.1 3-4.2 24.9-24.4 66.9-62 76.9-68.8 84.2-75.6 85.8-79.5 1.2-2.7 1.1-3.3-.9-5.2-1.9-1.9-3.3-2.2-10.4-2.2-9.9 0-20.1 3-28.5 8.5-3.1 2-31.6 26.8-63.2 55-65.5 58.5-64.1 57.5-79 57.5-14.7 0-13.8.7-79.2-57.7-31.5-28.1-59.6-52.6-62.4-54.5-7.4-4.9-18.5-8.5-27.4-8.9-4.1-.2-8.4 0-9.5.5z"/></svg>